<svg width="330" height="200" viewBox="0 0 330 200" fill="none" xmlns="http://www.w3.org/2000/svg">
<g clip-path="url(#clip0_17_233)">
<path opacity="0.2" fill-rule="evenodd" clip-rule="evenodd" d="M249.408 46.7999H73.4591C68.9097 46.7999 65.2205 50.5859 65.2205 55.2561C65.2205 59.9262 68.9097 63.7122 73.4591 63.7122H90.145L90.05 63.7171C94.5999 63.7171 98.2884 67.5031 98.2884 72.1732C98.2884 76.6415 94.912 80.3003 90.6351 80.6084H47.5418C42.9925 80.6084 39.3048 84.3943 39.3048 89.0645C39.3048 93.7347 42.9925 97.5206 47.5418 97.5206H92.006L91.7801 97.5351C96.33 97.5351 100.018 101.321 100.018 105.991C100.018 110.661 96.33 114.447 91.7801 114.447L91.8063 114.448H73.459C68.9082 114.448 65.2205 118.234 65.2205 122.904C65.2205 127.574 68.9082 131.36 73.459 131.36H103.599L103.49 131.364C108.04 131.364 111.729 135.15 111.729 139.82C111.729 144.49 108.04 148.276 103.49 148.276L103.524 148.277H43.5192C38.9683 148.277 35.2806 152.063 35.2806 156.733C35.2806 161.404 38.9683 165.19 43.5192 165.19H90.494C94.9129 165.343 98.4493 169.068 98.4493 173.641C98.4493 178.266 94.8311 182.024 90.3413 182.096H75.7124C71.1625 182.096 67.4741 185.882 67.4741 190.552C67.4741 195.222 71.1625 199.008 75.7124 199.008H175.09C179.64 199.008 183.328 195.222 183.328 190.552C183.328 185.882 179.64 182.096 175.09 182.096H159.149C154.659 182.024 151.041 178.266 151.041 173.641C151.041 169.068 154.577 165.343 158.996 165.19H235.797C240.347 165.19 244.035 161.404 244.035 156.733C244.035 152.063 240.347 148.277 235.797 148.277H222.151L222.186 148.276V148.232C218.035 147.795 214.798 144.196 214.798 139.82C214.798 135.445 218.035 131.846 222.186 131.409V131.364L222.041 131.36H269.263C273.813 131.36 277.501 127.574 277.501 122.904C277.501 118.234 273.813 114.448 269.263 114.448H242.998L243.001 114.447C238.451 114.447 234.763 110.661 234.763 105.991C234.763 101.321 238.451 97.5351 243.001 97.5351L242.271 97.5206H286.056C290.606 97.5206 294.294 93.7347 294.294 89.0645C294.294 84.3943 290.606 80.6084 286.056 80.6084H234.377C230.1 80.3003 226.723 76.6415 226.723 72.1732C226.723 67.5031 230.412 63.7171 234.962 63.7171L234.644 63.7122H249.408C253.958 63.7122 257.646 59.9262 257.646 55.2561C257.646 50.5859 253.958 46.7999 249.408 46.7999Z" fill="#7F91A8"/>
<path d="M132.515 127.82C130.615 126.56 129.512 125.729 128.892 125.203C128.277 124.676 128.131 124.43 128.212 124.295C128.296 124.161 128.549 124.146 129.319 124.414C130.084 124.683 131.356 125.215 133.394 126.216C135.439 127.212 137.779 128.669 139.542 130.011C140.426 130.675 141.174 131.3 141.692 131.757C142.211 132.214 142.51 132.504 142.51 132.504C142.51 132.504 140.912 132.065 138.889 131.215C136.855 130.375 134.409 129.085 132.515 127.82Z" fill="#EA1347"/>
<path d="M126.358 133.296C125.421 131.183 124.928 129.873 124.683 129.088C124.438 128.296 124.448 128.016 124.587 127.947C124.723 127.874 124.95 128.009 125.457 128.66C125.962 129.313 126.748 130.456 127.941 132.429C128.535 133.416 129.144 134.54 129.692 135.681C130.241 136.821 130.731 137.981 131.125 139.03C131.52 140.079 131.82 141.015 132.019 141.691C132.218 142.367 132.316 142.774 132.316 142.774C132.316 142.774 131.2 141.518 129.942 139.681C129.312 138.766 128.643 137.702 128.022 136.596C127.4 135.492 126.828 134.352 126.358 133.296Z" fill="#EA1347"/>
<path d="M118.271 134.491C118.593 132.193 118.869 130.816 119.077 130.015C119.287 129.218 119.442 128.997 119.598 129.003C119.753 129.015 119.873 129.271 119.959 130.088C120.041 130.911 120.1 132.315 120.062 134.636C120.03 136.958 119.713 139.754 119.262 141.963C118.826 144.162 118.294 145.766 118.294 145.766C118.294 145.766 118.226 145.349 118.145 144.652C118.063 143.955 117.973 142.979 117.926 141.851C117.821 139.598 117.942 136.788 118.271 134.491Z" fill="#EA1347"/>
<path d="M110.869 131.017C112.353 129.265 113.312 128.263 113.907 127.708C114.504 127.157 114.761 127.045 114.881 127.147C115 127.25 114.978 127.513 114.61 128.257C114.241 128.998 113.549 130.21 112.293 132.139C111.04 134.077 109.302 136.245 107.758 137.846C106.991 138.649 106.284 139.319 105.768 139.783C105.254 140.245 104.932 140.508 104.932 140.508C104.932 140.508 105.584 138.947 106.691 137.012C107.788 135.066 109.381 132.763 110.869 131.017Z" fill="#EA1347"/>
<path d="M106.473 123.986C108.645 123.336 109.976 123.025 110.77 122.887C111.571 122.75 111.837 122.801 111.883 122.951C111.938 123.098 111.771 123.31 111.071 123.732C110.368 124.152 109.158 124.785 107.082 125.715C106.046 126.179 104.877 126.636 103.695 127.031C102.518 127.426 101.33 127.758 100.262 128.008C99.1949 128.26 98.2492 128.43 97.5696 128.535C96.8889 128.64 96.4807 128.682 96.4807 128.682C96.4807 128.682 97.8517 127.727 99.8037 126.712C101.746 125.683 104.302 124.629 106.473 123.986Z" fill="#EA1347"/>
<path d="M106.473 115.618C108.642 116.274 109.931 116.751 110.671 117.075C111.407 117.401 111.609 117.592 111.574 117.746C111.534 117.898 111.284 117.984 110.479 117.953C109.672 117.918 108.309 117.778 106.076 117.412C103.841 117.051 101.192 116.334 99.1277 115.561C98.0926 115.18 97.21 114.8 96.5872 114.512C95.9632 114.225 95.5958 114.033 95.5958 114.033C95.5958 114.033 97.2458 113.988 99.4218 114.215C101.611 114.43 104.305 114.955 106.473 115.618Z" fill="#EA1347"/>
<path d="M110.87 108.58C112.349 110.337 113.18 111.452 113.631 112.135C114.08 112.821 114.149 113.097 114.034 113.204C113.919 113.312 113.667 113.252 113.001 112.773C112.338 112.292 111.268 111.419 109.586 109.869C107.895 108.321 106.049 106.246 104.724 104.452C104.058 103.56 103.513 102.747 103.138 102.156C102.765 101.568 102.557 101.204 102.557 101.204C102.557 101.204 103.97 102.088 105.679 103.487C107.4 104.876 109.397 106.822 110.87 108.58Z" fill="#EA1347"/>
<path d="M118.263 105.109C118.579 107.41 118.687 108.799 118.708 109.635C118.724 110.468 118.636 110.726 118.485 110.753C118.336 110.792 118.154 110.587 117.848 109.815C117.545 109.046 117.107 107.722 116.508 105.482C115.903 103.245 115.44 100.461 115.275 98.2237C115.094 95.9847 115.168 94.2856 115.168 94.2856C115.168 94.2856 115.347 94.6658 115.616 95.3155C115.885 95.9644 116.24 96.8803 116.59 97.945C116.942 99.0093 117.29 100.222 117.579 101.458C117.87 102.698 118.104 103.959 118.263 105.109Z" fill="#EA1347"/>
<path d="M126.357 106.296C125.413 108.406 124.769 109.645 124.351 110.351C123.931 111.05 123.715 111.234 123.574 111.172C123.434 111.107 123.384 110.849 123.532 110.03C123.682 109.215 124.012 107.849 124.686 105.633C125.353 103.415 126.424 100.827 127.465 98.8435C128.494 96.8492 129.445 95.4731 129.445 95.4731C129.445 95.4731 129.251 97.1584 128.721 99.3343C128.201 101.525 127.307 104.19 126.357 106.296Z" fill="#EA1347"/>
<path d="M132.483 111.776C130.58 113.03 129.386 113.717 128.664 114.078C127.937 114.438 127.663 114.468 127.576 114.337C127.488 114.206 127.583 113.958 128.139 113.349C128.697 112.743 129.689 111.781 131.422 110.29C133.154 108.791 135.418 107.208 137.335 106.117C138.29 105.566 139.151 105.128 139.774 104.83C140.395 104.533 140.775 104.374 140.775 104.374C140.775 104.374 139.723 105.685 138.131 107.225C137.339 107.995 136.404 108.828 135.428 109.616C134.453 110.404 133.434 111.148 132.483 111.776Z" fill="#EA1347"/>
<path d="M134.801 119.803C132.539 119.799 131.17 119.713 130.367 119.613C129.56 119.511 129.336 119.38 129.319 119.221C129.303 119.062 129.533 118.904 130.316 118.703C131.096 118.505 132.441 118.247 134.685 117.959C135.808 117.815 137.054 117.717 138.295 117.682C139.537 117.644 140.774 117.671 141.863 117.741C144.045 117.877 145.671 118.191 145.671 118.191C145.671 118.191 145.279 118.319 144.619 118.5C143.956 118.681 143.02 118.91 141.942 119.115C139.787 119.538 137.062 119.813 134.801 119.803Z" fill="#EA1347"/>
<path d="M139.571 141.952C141.296 143.947 142.516 144.989 143.446 145.398C144.375 145.811 144.979 145.575 145.439 145.11C145.895 144.642 146.091 143.994 145.685 143.058C145.282 142.12 144.235 140.877 142.264 139.143C141.278 138.273 140.115 137.407 138.949 136.565C137.779 135.734 136.61 134.903 135.57 134.163C134.537 133.429 133.648 132.782 133.02 132.317C132.392 131.847 132.014 131.564 132.014 131.564C132.014 131.564 133.14 133.07 134.609 135.172C135.345 136.225 136.172 137.407 137 138.591C137.841 139.775 138.707 140.955 139.571 141.952Z" fill="#EA1347"/>
<path d="M124.872 149.117C125.276 151.753 125.756 153.307 126.326 154.168C126.889 155.016 127.525 155.165 128.156 155.029C128.784 154.874 129.292 154.45 129.441 153.436C129.591 152.414 129.365 150.794 128.615 148.241C128.242 146.963 127.718 145.588 127.178 144.234C126.63 142.888 126.082 141.542 125.595 140.344C125.11 139.153 124.701 138.115 124.416 137.375C124.135 136.635 123.966 136.19 123.966 136.19C123.966 136.19 124.123 138.079 124.256 140.659C124.323 141.955 124.398 143.41 124.473 144.866C124.559 146.327 124.668 147.8 124.872 149.117Z" fill="#EA1347"/>
<path d="M108.698 146.98C107.651 149.422 107.239 150.992 107.267 152.027C107.279 152.544 107.398 152.925 107.588 153.207C107.782 153.48 108.048 153.654 108.351 153.766C108.654 153.878 108.965 153.921 109.285 153.836C109.606 153.743 109.934 153.528 110.264 153.138C110.929 152.36 111.589 150.883 112.306 148.318C112.666 147.036 112.951 145.587 113.212 144.144C113.459 142.71 113.706 141.276 113.927 140C114.143 138.739 114.349 137.627 114.5 136.843C114.653 136.062 114.745 135.591 114.745 135.591C114.745 135.591 114.524 136.014 114.155 136.715C113.784 137.416 113.249 138.409 112.631 139.521C112.006 140.647 111.304 141.911 110.602 143.177C109.904 144.457 109.22 145.759 108.698 146.98Z" fill="#EA1347"/>
<path d="M96.2346 136.206C94.0654 137.676 92.8875 138.767 92.3603 139.655C91.833 140.537 91.9713 141.186 92.353 141.719C92.7427 142.246 93.3355 142.538 94.2953 142.258C95.2577 141.981 96.6071 141.094 98.5594 139.34C99.5382 138.462 100.541 137.404 101.518 136.339C102.486 135.269 103.453 134.2 104.314 133.248C105.169 132.303 105.92 131.492 106.458 130.919C107 130.348 107.325 130.005 107.325 130.005C107.325 130.005 105.713 130.934 103.478 132.127C102.357 132.726 101.099 133.398 99.8397 134.071C98.5789 134.757 97.3183 135.47 96.2346 136.206Z" fill="#EA1347"/>
<path d="M91.4281 120.228C88.8309 120.26 87.2574 120.525 86.3521 120.981C85.4545 121.432 85.2152 122.057 85.2582 122.719C85.3213 123.38 85.6527 123.957 86.6092 124.254C87.5796 124.553 89.169 124.555 91.7389 124.158C93.0242 123.961 94.425 123.625 95.8084 123.269C97.1846 122.905 98.5594 122.541 99.7835 122.217C102.22 121.571 104.023 121.157 104.023 121.157C104.023 121.157 103.558 121.126 102.787 121.073C102.013 121.017 100.926 120.929 99.6733 120.813C98.4137 120.696 96.9992 120.564 95.5831 120.432C94.1625 120.31 92.7277 120.21 91.4281 120.228Z" fill="#EA1347"/>
<path d="M95.7822 104.107C93.5774 102.694 92.1212 102.05 91.1172 101.93C90.1074 101.803 89.5924 102.204 89.2838 102.788C88.9672 103.367 88.9648 104.047 89.615 104.827C90.2676 105.613 91.5975 106.493 93.9698 107.584C95.1551 108.13 96.5141 108.625 97.8697 109.095C99.2197 109.551 100.568 110.007 101.769 110.412C104.146 111.211 105.899 111.872 105.899 111.872C105.899 111.872 104.4 110.755 102.408 109.165C101.413 108.37 100.295 107.477 99.1761 106.584C98.0422 105.692 96.8855 104.811 95.7822 104.107Z" fill="#EA1347"/>
<path d="M107.946 92.984C106.835 90.572 105.949 89.2203 105.168 88.5588C104.392 87.9005 103.746 87.9465 103.179 88.259C102.617 88.5825 102.25 89.1405 102.384 90.1555C102.517 91.175 103.18 92.6691 104.596 94.9024C105.303 96.0215 106.182 97.19 107.07 98.3341C107.965 99.4691 108.859 100.603 109.655 101.612C110.445 102.615 111.122 103.493 111.598 104.121C112.072 104.751 112.357 105.131 112.357 105.131C112.357 105.131 111.689 103.361 110.855 100.921C110.436 99.6981 109.966 98.3243 109.495 96.9489C109.012 95.571 108.503 94.1893 107.946 92.984Z" fill="#EA1347"/>
<path d="M138.98 97.0887C140.658 95.0514 141.488 93.6639 141.749 92.6605C142.017 91.6527 141.699 91.077 141.185 90.6752C140.67 90.2731 140.013 90.173 139.169 90.7184C138.321 91.2635 137.277 92.497 135.885 94.7516C135.187 95.8797 134.522 97.1785 133.873 98.4914C133.239 99.7985 132.606 101.104 132.042 102.267C131.482 103.42 130.986 104.414 130.626 105.119C130.262 105.826 130.043 106.251 130.043 106.251C130.043 106.251 131.334 104.89 133.151 103.096C134.061 102.198 135.083 101.19 136.106 100.18C137.127 99.1568 138.142 98.1085 138.98 97.0887Z" fill="#EA1347"/>
<path d="M147.975 111.021C150.459 110.235 151.888 109.526 152.637 108.825C153.379 108.131 153.429 107.467 153.207 106.845C152.972 106.229 152.489 105.776 151.49 105.769C150.486 105.76 148.953 106.222 146.598 107.345C145.419 107.905 144.168 108.633 142.938 109.373C141.717 110.122 140.498 110.87 139.412 111.535C138.332 112.197 137.39 112.76 136.716 113.155C136.042 113.547 135.636 113.782 135.636 113.782C135.636 113.782 137.437 113.354 139.907 112.853C141.146 112.6 142.538 112.317 143.932 112.033C145.329 111.737 146.733 111.416 147.975 111.021Z" fill="#EA1347"/>
<path d="M148.2 127.755C150.703 128.474 152.273 128.672 153.264 128.499C154.248 128.327 154.673 127.808 154.789 127.157C154.912 126.508 154.773 125.864 153.917 125.298C153.07 124.73 151.55 124.267 148.975 123.9C147.688 123.715 146.251 123.63 144.824 123.568C143.407 123.518 141.99 123.468 140.729 123.423C138.208 123.335 136.36 123.21 136.36 123.21C136.36 123.21 138.118 123.857 140.442 124.806C141.618 125.284 142.938 125.82 144.26 126.357C145.595 126.886 146.948 127.397 148.2 127.755Z" fill="#EA1347"/>
<path d="M216.75 82.1783C214.676 80.8029 213.472 79.8958 212.796 79.3215C212.125 78.7465 211.965 78.4777 212.054 78.3303C212.145 78.1845 212.422 78.1676 213.263 78.4606C214.097 78.7541 215.485 79.3342 217.71 80.4269C219.942 81.5146 222.496 83.1051 224.421 84.5692C225.385 85.2942 226.201 85.9764 226.767 86.4753C227.333 86.974 227.66 87.2905 227.66 87.2905C227.66 87.2905 225.916 86.8109 223.708 85.8833C221.488 84.9671 218.818 83.5585 216.75 82.1783Z" fill="#F9971E"/>
<path d="M210.008 88.1643C208.984 85.8583 208.447 84.4285 208.18 83.572C207.912 82.7074 207.923 82.4018 208.074 82.3263C208.223 82.2463 208.47 82.3935 209.024 83.1045C209.576 83.8176 210.434 85.0645 211.735 87.2187C212.384 88.2957 213.048 89.523 213.647 90.7683C214.246 92.0118 214.781 93.2781 215.211 94.4232C215.642 95.5676 215.97 96.5901 216.186 97.3273C216.404 98.0653 216.511 98.5095 216.511 98.5095C216.511 98.5095 215.293 97.1391 213.92 95.1344C213.232 94.1355 212.501 92.9735 211.824 91.7665C211.145 90.5617 210.521 89.3168 210.008 88.1643Z" fill="#F9971E"/>
<path d="M201.22 89.464C201.573 86.9557 201.873 85.4523 202.1 84.5788C202.329 83.7083 202.499 83.467 202.669 83.474C202.838 83.4874 202.969 83.7666 203.063 84.6585C203.153 85.5561 203.217 87.0886 203.175 89.6223C203.141 92.1561 202.795 95.2084 202.302 97.6196C201.826 100.02 201.246 101.77 201.246 101.77C201.246 101.77 201.172 101.315 201.083 100.554C200.994 99.7941 200.895 98.7287 200.845 97.4973C200.73 95.0384 200.861 91.9709 201.22 89.464Z" fill="#F9971E"/>
<path d="M193.119 85.6694C194.74 83.7574 195.785 82.663 196.435 82.0577C197.087 81.4557 197.368 81.3344 197.498 81.4456C197.628 81.5574 197.604 81.8441 197.202 82.6568C196.8 83.4652 196.045 84.789 194.674 86.8942C193.305 89.009 191.408 91.3756 189.723 93.1229C188.887 93.9997 188.115 94.7303 187.551 95.2372C186.99 95.7413 186.639 96.028 186.639 96.028C186.639 96.028 187.35 94.3247 188.559 92.2128C189.757 90.0889 191.495 87.5745 193.119 85.6694Z" fill="#F9971E"/>
<path d="M188.331 77.9965C190.702 77.2871 192.154 76.9472 193.021 76.7969C193.895 76.6476 194.185 76.703 194.236 76.8669C194.296 77.0275 194.114 77.2585 193.349 77.7188C192.581 78.177 191.261 78.8687 188.996 79.884C187.864 80.3899 186.589 80.8883 185.299 81.3202C184.014 81.7515 182.717 82.1139 181.552 82.3867C180.387 82.661 179.354 82.8468 178.613 82.9612C177.87 83.0762 177.424 83.1218 177.424 83.1218C177.424 83.1218 178.921 82.0797 181.051 80.9714C183.171 79.8492 185.961 78.6978 188.331 77.9965Z" fill="#F9971E"/>
<path d="M188.331 68.861C190.699 69.5777 192.105 70.0979 192.913 70.4518C193.716 70.8072 193.936 71.0161 193.899 71.1839C193.855 71.35 193.582 71.4443 192.703 71.4097C191.823 71.3715 190.335 71.2193 187.897 70.8189C185.458 70.4256 182.566 69.6429 180.314 68.7987C179.184 68.3829 178.22 67.9681 177.541 67.6544C176.859 67.3403 176.458 67.1314 176.458 67.1314C176.458 67.1314 178.259 67.0822 180.634 67.3298C183.024 67.5641 185.965 68.1373 188.331 68.861Z" fill="#F9971E"/>
<path d="M201.221 57.3995C201.566 59.9117 201.685 61.4282 201.707 62.3397C201.725 63.249 201.629 63.5309 201.463 63.5607C201.3 63.6032 201.103 63.3792 200.768 62.5371C200.438 61.6975 199.96 60.2523 199.306 57.8071C198.645 55.3659 198.139 52.3267 197.96 49.8849C197.763 47.441 197.843 45.5864 197.843 45.5864C197.843 45.5864 198.039 46.0016 198.332 46.7108C198.626 47.4189 199.013 48.4186 199.396 49.5806C199.78 50.7425 200.159 52.0658 200.475 53.4149C200.793 54.7687 201.048 56.1451 201.221 57.3995Z" fill="#F9971E"/>
<path d="M210.022 58.6902C208.992 60.993 208.289 62.3461 207.832 63.116C207.375 63.8786 207.139 64.0796 206.985 64.0124C206.831 63.9417 206.777 63.6593 206.939 62.766C207.103 61.8765 207.463 60.3858 208.198 57.9666C208.926 55.5455 210.095 52.7212 211.231 50.5559C212.355 48.3791 213.393 46.8771 213.393 46.8771C213.393 46.8771 213.181 48.7167 212.602 51.0916C212.035 53.4822 211.059 56.3915 210.022 58.6902Z" fill="#F9971E"/>
<path d="M216.736 64.6735C214.658 66.0422 213.355 66.7917 212.567 67.1856C211.774 67.5786 211.474 67.6121 211.38 67.4681C211.283 67.3259 211.387 67.0547 211.994 66.3904C212.602 65.7289 213.685 64.6782 215.577 63.0513C217.468 61.4155 219.938 59.6871 222.031 58.4963C223.073 57.8952 224.013 57.417 224.693 57.0917C225.371 56.7677 225.786 56.5945 225.786 56.5945C225.786 56.5945 224.637 58.0256 222.9 59.7054C222.035 60.5458 221.015 61.4558 219.95 62.3153C218.885 63.176 217.774 63.9878 216.736 64.6735Z" fill="#F9971E"/>
<path d="M219.263 73.4332C216.795 73.4294 215.301 73.3352 214.424 73.2266C213.543 73.1154 213.299 72.9727 213.28 72.7995C213.263 72.6262 213.514 72.4539 214.369 72.2343C215.22 72.0185 216.688 71.7381 219.138 71.4234C220.363 71.2674 221.723 71.1606 223.078 71.1215C224.433 71.081 225.783 71.1098 226.972 71.1865C229.354 71.334 231.128 71.6772 231.128 71.6772C231.128 71.6772 230.701 71.8167 229.98 72.0136C229.256 72.2104 228.235 72.4604 227.059 72.684C224.706 73.1453 221.732 73.4443 219.263 73.4332Z" fill="#F9971E"/>
<path d="M224.465 97.6105C226.348 99.7885 227.679 100.926 228.694 101.372C229.708 101.822 230.368 101.565 230.87 101.058C231.368 100.546 231.581 99.8396 231.138 98.8185C230.698 97.7946 229.556 96.4374 227.404 94.5446C226.328 93.5957 225.059 92.6496 223.786 91.7311C222.509 90.8234 221.233 89.9169 220.097 89.1096C218.971 88.3082 218 87.602 217.315 87.0939C216.629 86.581 216.217 86.2723 216.217 86.2723C216.217 86.2723 217.446 87.916 219.049 90.2101C219.853 91.3596 220.755 92.6505 221.658 93.9426C222.576 95.2346 223.522 96.5227 224.465 97.6105Z" fill="#F9971E"/>
<path d="M208.393 105.433C208.834 108.309 209.358 110.005 209.98 110.945C210.595 111.871 211.288 112.034 211.978 111.885C212.663 111.716 213.217 111.253 213.38 110.147C213.544 109.03 213.297 107.262 212.479 104.476C212.071 103.081 211.5 101.581 210.91 100.102C210.312 98.6326 209.714 97.1644 209.182 95.857C208.653 94.5569 208.207 93.424 207.896 92.6155C207.589 91.8082 207.404 91.3222 207.404 91.3222C207.404 91.3222 207.576 93.384 207.72 96.2005C207.793 97.6146 207.875 99.2028 207.957 100.792C208.051 102.387 208.171 103.995 208.393 105.433Z" fill="#F9971E"/>
<path d="M190.778 103.092C189.636 105.758 189.185 107.471 189.216 108.601C189.229 109.164 189.359 109.581 189.567 109.889C189.778 110.186 190.068 110.376 190.399 110.498C190.73 110.62 191.07 110.667 191.419 110.575C191.769 110.473 192.127 110.238 192.488 109.813C193.213 108.964 193.933 107.351 194.716 104.552C195.108 103.153 195.42 101.571 195.705 99.9963C195.975 98.4305 196.245 96.8661 196.485 95.4733C196.721 94.0966 196.946 92.8832 197.111 92.0272C197.278 91.1744 197.379 90.661 197.379 90.661C197.379 90.661 197.137 91.1218 196.734 91.8876C196.329 92.6526 195.745 93.7362 195.071 94.9499C194.389 96.1788 193.623 97.5589 192.856 98.9402C192.094 100.338 191.348 101.759 190.778 103.092Z" fill="#F9971E"/>
<path d="M170.666 91.3269C168.298 92.9312 167.012 94.1224 166.437 95.0908C165.862 96.0546 166.012 96.7624 166.429 97.3441C166.854 97.919 167.501 98.2383 168.549 97.933C169.6 97.6306 171.072 96.6624 173.203 94.747C174.272 93.7891 175.366 92.6342 176.432 91.4722C177.489 90.3042 178.545 89.1374 179.485 88.0983C180.418 87.0669 181.237 86.1813 181.825 85.5565C182.416 84.9333 182.771 84.5581 182.771 84.5581C182.771 84.5581 181.011 85.5722 178.572 86.8746C177.349 87.528 175.975 88.2616 174.601 88.9962C173.225 89.7453 171.849 90.5231 170.666 91.3269Z" fill="#F9971E"/>
<path d="M171.89 73.8934C169.055 73.9292 167.338 74.2185 166.349 74.7155C165.37 75.2079 165.108 75.8904 165.155 76.6131C165.224 77.3339 165.586 77.9642 166.63 78.2884C167.689 78.6143 169.424 78.6166 172.229 78.1832C173.632 77.9682 175.161 77.6012 176.671 77.2134C178.173 76.8157 179.673 76.4183 181.01 76.0645C183.67 75.3593 185.636 74.9083 185.636 74.9083C185.636 74.9083 185.13 74.8737 184.288 74.816C183.443 74.7551 182.256 74.659 180.889 74.5326C179.514 74.4043 177.97 74.2603 176.425 74.1162C174.874 73.983 173.308 73.8737 171.89 73.8934Z" fill="#F9971E"/>
<path d="M189.923 44.1585C188.711 41.5258 187.744 40.0505 186.891 39.3285C186.045 38.6099 185.339 38.6602 184.72 39.0013C184.107 39.3542 183.706 39.9633 183.853 41.0713C183.998 42.1841 184.721 43.8149 186.267 46.2526C187.039 47.4738 187.998 48.7493 188.967 49.9981C189.944 51.2368 190.92 52.4743 191.788 53.5764C192.651 54.6712 193.39 55.6291 193.909 56.3144C194.426 57.0024 194.738 57.4165 194.738 57.4165C194.738 57.4165 194.009 55.485 193.099 52.8223C192.642 51.4869 192.128 49.9873 191.614 48.4863C191.086 46.9822 190.531 45.4741 189.923 44.1585Z" fill="#F9971E"/>
<path d="M207.524 41.2905C207.895 38.4071 207.863 36.6133 207.525 35.55C207.19 34.4857 206.572 34.1088 205.868 34.065C205.163 34.0315 204.504 34.2985 204.042 35.3216C203.575 36.3513 203.324 38.1109 203.34 41.0229C203.346 42.479 203.481 44.085 203.638 45.6752C203.806 47.257 203.974 48.8372 204.124 50.2442C204.422 53.0496 204.575 55.1148 204.575 55.1148C204.575 55.1148 204.681 54.6028 204.858 53.7521C205.038 52.904 205.301 51.7134 205.619 50.3442C205.939 48.9645 206.3 47.4151 206.66 45.8643C207.011 44.3084 207.34 42.7345 207.524 41.2905Z" fill="#F9971E"/>
<path d="M223.798 48.635C225.63 46.4113 226.536 44.8969 226.821 43.8015C227.114 42.7016 226.766 42.0733 226.205 41.6347C225.644 41.1959 224.926 41.0865 224.005 41.6817C223.079 42.2768 221.94 43.6232 220.421 46.0841C219.659 47.3154 218.933 48.733 218.224 50.166C217.532 51.5926 216.841 53.0177 216.226 54.2868C215.615 55.5459 215.073 56.6305 214.681 57.4005C214.283 58.1715 214.044 58.6355 214.044 58.6355C214.044 58.6355 215.453 57.1496 217.436 55.1918C218.429 54.2117 219.545 53.1113 220.661 52.0095C221.776 50.8923 222.884 49.7481 223.798 48.635Z" fill="#F9971E"/>
<path d="M233.628 63.856C236.339 62.9976 237.899 62.224 238.717 61.4591C239.527 60.7013 239.581 59.9764 239.339 59.298C239.083 58.6255 238.555 58.131 237.465 58.123C236.369 58.1137 234.696 58.6172 232.126 59.8429C230.839 60.4549 229.473 61.2487 228.131 62.0573C226.798 62.8743 225.467 63.6904 224.281 64.4171C223.103 65.1388 222.074 65.7537 221.34 66.1845C220.604 66.6122 220.161 66.8695 220.161 66.8695C220.161 66.8695 222.126 66.4026 224.822 65.8547C226.175 65.5793 227.694 65.27 229.215 64.9602C230.74 64.6374 232.273 64.287 233.628 63.856Z" fill="#F9971E"/>
<path d="M233.888 82.1055C236.62 82.8901 238.334 83.106 239.415 82.9168C240.489 82.7295 240.953 82.1629 241.08 81.4521C241.214 80.7437 241.063 80.0414 240.128 79.4234C239.204 78.8037 237.544 78.2976 234.734 77.8972C233.33 77.6952 231.761 77.6022 230.204 77.5347C228.656 77.4801 227.111 77.4256 225.734 77.3772C222.983 77.2804 220.965 77.1439 220.965 77.1439C220.965 77.1439 222.884 77.8503 225.421 78.8866C226.704 79.4079 228.145 79.9933 229.588 80.5791C231.045 81.1567 232.521 81.7148 233.888 82.1055Z" fill="#F9971E"/>
<path d="M95.6326 82.1317C93.8853 82.1317 92.4634 80.6723 92.4634 78.8786C92.4634 77.0851 93.8853 75.6258 95.6326 75.6258C97.38 75.6258 98.8019 77.0851 98.8019 78.8786C98.8019 80.6723 97.38 82.1317 95.6326 82.1317ZM95.6326 72.3728C92.1378 72.3728 89.2943 75.2916 89.2943 78.8786C89.2943 82.4659 92.1378 85.3847 95.6326 85.3847C99.1275 85.3847 101.971 82.4659 101.971 78.8786C101.971 75.2916 99.1275 72.3728 95.6326 72.3728Z" fill="#94A8BE"/>
<path d="M90.15 164.661C89.4462 163.574 88.5363 162.64 87.4772 161.918C88.5363 161.195 89.4462 160.261 90.15 159.174C90.8538 160.261 91.7637 161.195 92.8228 161.918C91.7637 162.64 90.8538 163.574 90.15 164.661ZM98.073 160.291C94.5783 160.291 91.7346 157.373 91.7346 153.785C91.7346 152.887 91.0253 152.159 90.15 152.159C89.2748 152.159 88.5654 152.887 88.5654 153.785C88.5654 157.373 85.7218 160.291 82.2271 160.291C81.3518 160.291 80.6425 161.019 80.6425 161.918C80.6425 162.816 81.3518 163.544 82.2271 163.544C85.7218 163.544 88.5654 166.463 88.5654 170.05C88.5654 170.949 89.2748 171.676 90.15 171.676C91.0253 171.676 91.7346 170.949 91.7346 170.05C91.7346 166.463 94.5783 163.544 98.073 163.544C98.9482 163.544 99.6576 162.816 99.6576 161.918C99.6576 161.019 98.9482 160.291 98.073 160.291Z" fill="#F9971E"/>
<path d="M203.647 174.609C203.898 173.329 203.898 172.009 203.647 170.729C204.894 170.987 206.18 170.987 207.427 170.729C207.176 172.009 207.176 173.329 207.427 174.609C206.18 174.351 204.894 174.351 203.647 174.609ZM212.26 177.269C209.789 174.733 209.789 170.605 212.26 168.069C212.879 167.433 212.879 166.404 212.26 165.768C211.641 165.133 210.638 165.133 210.019 165.768C207.548 168.305 203.526 168.305 201.055 165.768C200.436 165.133 199.433 165.133 198.814 165.768C198.195 166.404 198.195 167.433 198.814 168.069C201.285 170.605 201.285 174.733 198.814 177.269C198.195 177.905 198.195 178.934 198.814 179.57C199.433 180.205 200.436 180.205 201.055 179.57C203.526 177.033 207.548 177.033 210.019 179.57C210.638 180.205 211.641 180.205 212.26 179.57C212.879 178.934 212.879 177.905 212.26 177.269Z" fill="#F9971E"/>
<path d="M265.659 158.002C265.91 156.722 265.91 155.402 265.659 154.122C266.905 154.38 268.192 154.38 269.439 154.122C269.187 155.402 269.187 156.722 269.439 158.002C268.192 157.744 266.905 157.744 265.659 158.002ZM274.272 160.662C271.801 158.126 271.801 153.998 274.272 151.462C274.891 150.826 274.891 149.797 274.272 149.161C273.653 148.526 272.65 148.526 272.031 149.161C269.56 151.698 265.538 151.698 263.067 149.161C262.448 148.526 261.445 148.526 260.826 149.161C260.207 149.797 260.207 150.826 260.826 151.462C263.297 153.998 263.297 158.126 260.826 160.662C260.207 161.298 260.207 162.327 260.826 162.963C261.445 163.598 262.448 163.598 263.067 162.963C265.538 160.426 269.56 160.426 272.031 162.963C272.65 163.598 273.653 163.598 274.272 162.963C274.891 162.327 274.891 161.298 274.272 160.662Z" fill="#F9971E"/>
<path d="M271.011 94.6188C271.263 93.3392 271.263 92.0185 271.011 90.739C272.258 90.9969 273.545 90.9969 274.791 90.739C274.54 92.0185 274.54 93.3392 274.791 94.6188C273.545 94.361 272.258 94.361 271.011 94.6188ZM279.624 97.2793C277.153 94.7429 277.153 90.615 279.624 88.0786C280.243 87.4432 280.243 86.4136 279.624 85.7783C279.005 85.143 278.002 85.143 277.383 85.7783C274.912 88.3148 270.891 88.3148 268.419 85.7783C267.801 85.143 266.797 85.143 266.179 85.7783C265.56 86.4135 265.56 87.4434 266.179 88.0786C268.65 90.615 268.65 94.7427 266.179 97.2793C265.56 97.9145 265.56 98.9443 266.179 99.5795C266.797 100.215 267.801 100.215 268.419 99.5795C270.891 97.0431 274.912 97.0431 277.383 99.5795C278.002 100.215 279.005 100.215 279.624 99.5795C280.243 98.9443 280.243 97.9145 279.624 97.2793Z" fill="#F9971E"/>
<path d="M250.322 130.78C248.575 130.78 247.153 129.32 247.153 127.527C247.153 125.733 248.575 124.274 250.322 124.274C252.069 124.274 253.491 125.733 253.491 127.527C253.491 129.32 252.069 130.78 250.322 130.78ZM250.322 121.021C246.827 121.021 243.984 123.94 243.984 127.527C243.984 131.114 246.827 134.033 250.322 134.033C253.817 134.033 256.66 131.114 256.66 127.527C256.66 123.94 253.817 121.021 250.322 121.021Z" fill="#94A8BE"/>
<path d="M184.48 18.4267C182.733 18.4267 181.311 16.9674 181.311 15.1737C181.311 13.3801 182.733 11.9207 184.48 11.9207C186.228 11.9207 187.65 13.3801 187.65 15.1737C187.65 16.9674 186.228 18.4267 184.48 18.4267ZM184.48 8.66782C180.985 8.66782 178.142 11.5866 178.142 15.1737C178.142 18.7609 180.985 21.6797 184.48 21.6797C187.975 21.6797 190.819 18.7609 190.819 15.1737C190.819 11.5866 187.975 8.66782 184.48 8.66782Z" fill="#00A991"/>
<path d="M163.44 189.818C161.693 189.818 160.271 188.358 160.271 186.565C160.271 184.771 161.693 183.312 163.44 183.312C165.187 183.312 166.609 184.771 166.609 186.565C166.609 188.358 165.187 189.818 163.44 189.818ZM163.44 180.059C159.945 180.059 157.102 182.977 157.102 186.565C157.102 190.152 159.945 193.071 163.44 193.071C166.935 193.071 169.779 190.152 169.779 186.565C169.779 182.977 166.935 180.059 163.44 180.059Z" fill="#94A8BE"/>
<path d="M232.455 192.918C230.707 192.918 229.286 191.458 229.286 189.665C229.286 187.871 230.707 186.412 232.455 186.412C234.202 186.412 235.624 187.871 235.624 189.665C235.624 191.458 234.202 192.918 232.455 192.918ZM232.455 183.159C228.96 183.159 226.116 186.077 226.116 189.665C226.116 193.252 228.96 196.171 232.455 196.171C235.95 196.171 238.793 193.252 238.793 189.665C238.793 186.077 235.95 183.159 232.455 183.159Z" fill="#00A991"/>
<path d="M118.101 55.1229C117.397 54.0358 116.488 53.1018 115.429 52.3794C116.488 51.6571 117.397 50.7231 118.101 49.636C118.805 50.7231 119.715 51.6571 120.774 52.3794C119.715 53.1018 118.805 54.0358 118.101 55.1229ZM126.024 50.7529C122.53 50.7529 119.686 47.8343 119.686 44.247C119.686 43.3487 118.977 42.6205 118.101 42.6205C117.226 42.6205 116.517 43.3487 116.517 44.247C116.517 47.8343 113.673 50.7529 110.178 50.7529C109.303 50.7529 108.594 51.481 108.594 52.3794C108.594 53.2778 109.303 54.0059 110.178 54.0059C113.673 54.0059 116.517 56.9247 116.517 60.5118C116.517 61.4103 117.226 62.1383 118.101 62.1383C118.977 62.1383 119.686 61.4103 119.686 60.5118C119.686 56.9247 122.53 54.0059 126.024 54.0059C126.9 54.0059 127.609 53.2778 127.609 52.3794C127.609 51.481 126.9 50.7529 126.024 50.7529Z" fill="#F9971E"/>
<path d="M223.792 25.8705C223.089 24.7834 222.179 23.8495 221.12 23.1271C222.179 22.4046 223.089 21.4707 223.792 20.3836C224.496 21.4707 225.406 22.4046 226.465 23.1271C225.406 23.8495 224.496 24.7834 223.792 25.8705ZM231.716 21.5006C228.221 21.5006 225.377 18.5818 225.377 14.9947C225.377 14.0963 224.668 13.3682 223.792 13.3682C222.917 13.3682 222.208 14.0963 222.208 14.9947C222.208 18.5818 219.364 21.5006 215.87 21.5006C214.994 21.5006 214.285 22.2287 214.285 23.1271C214.285 24.0255 214.994 24.7536 215.87 24.7536C219.364 24.7536 222.208 27.6724 222.208 31.2594C222.208 32.1578 222.917 32.8859 223.792 32.8859C224.668 32.8859 225.377 32.1578 225.377 31.2594C225.377 27.6724 228.221 24.7536 231.716 24.7536C232.591 24.7536 233.3 24.0255 233.3 23.1271C233.3 22.2287 232.591 21.5006 231.716 21.5006Z" fill="#F9971E"/>
<path d="M213.817 66.5687C217.336 65.6079 220.951 67.738 221.912 71.3379L239.417 136.904C239.825 138.434 239.698 140.063 239.058 141.507L233.065 155.022C232.244 156.873 230.657 158.249 228.741 158.773L138.229 183.514C134.681 184.483 131.041 182.311 130.113 178.67L113.368 112.998C112.969 111.436 113.127 109.779 113.813 108.326L120.312 94.5437C121.152 92.7634 122.707 91.4466 124.571 90.9376L213.817 66.5687Z" fill="#00A991"/>
<path fill-rule="evenodd" clip-rule="evenodd" d="M228.178 69.5804L245.683 135.147C246.492 138.177 246.24 141.402 244.972 144.262L238.979 157.777C237.353 161.443 234.211 164.169 230.415 165.207L139.903 189.947C132.877 191.868 125.667 187.565 123.828 180.353L107.083 114.682C106.294 111.588 106.607 108.307 107.965 105.428L114.464 91.6458C116.127 88.1197 119.207 85.5118 122.9 84.5037L212.145 60.1347C219.114 58.232 226.274 62.4506 228.178 69.5804ZM221.912 71.338C220.951 67.7381 217.336 65.608 213.818 66.5687L124.572 90.9377C122.707 91.4467 121.152 92.7634 120.313 94.5438L113.813 108.326C113.127 109.779 112.97 111.436 113.368 112.998L130.113 178.67C131.041 182.311 134.681 184.483 138.229 183.514L228.741 158.773C230.658 158.249 232.244 156.873 233.065 155.022L239.058 141.507C239.699 140.063 239.826 138.434 239.417 136.905L221.912 71.338Z" fill="white"/>
<g filter="url(#filter0_i_17_233)">
<path fill-rule="evenodd" clip-rule="evenodd" d="M137.47 90.7083L127.377 52.0954C127.377 52.0954 119.686 22.676 148.387 14.7931C177.088 6.9102 184.779 36.3296 184.779 36.3296L194.872 74.9425L137.47 90.7083ZM151.821 86.7665L141.727 48.1536C141.727 48.1536 137.882 33.444 152.233 29.5025C166.583 25.561 170.428 40.2707 170.428 40.2707L180.522 78.8836L151.821 86.7665Z" fill="url(#paint0_linear_17_233)"/>
</g>
<path fill-rule="evenodd" clip-rule="evenodd" d="M121.102 53.8186L127.335 52.1069C121.102 53.8186 121.101 53.8154 121.101 53.812L121.099 53.8047L121.094 53.7879L121.084 53.7462C121.076 53.7147 121.066 53.6759 121.055 53.63C121.032 53.5383 121.004 53.4181 120.97 53.2711C120.904 52.9772 120.818 52.5747 120.724 52.0765C120.537 51.0824 120.317 49.6944 120.158 48.0179C119.844 44.6966 119.756 40.0721 120.755 35.0654C121.76 30.0301 123.896 24.4746 128.117 19.5517C132.37 14.5911 138.433 10.6338 146.706 8.36153C154.979 6.08925 162.16 6.40902 168.263 8.52525C174.32 10.6254 178.879 14.3421 182.206 18.1875C185.514 22.0112 187.693 26.0614 189.041 29.0987C189.722 30.6319 190.208 31.9469 190.531 32.9036C190.693 33.3831 190.814 33.7757 190.9 34.0644C190.943 34.2089 190.977 34.3276 191.002 34.4185C191.015 34.464 191.025 34.5026 191.034 34.5339L191.045 34.5755L191.049 34.5922L191.051 34.5996C191.052 34.6029 191.053 34.6062 184.779 36.3295C184.779 36.3295 177.088 6.91014 148.387 14.793C119.686 22.6759 127.377 52.0953 127.377 52.0953L137.47 90.7082L194.872 74.9424L184.779 36.3295L191.053 34.6062L202.828 79.6506L132.877 98.863L121.102 53.8186ZM178.841 72.4523L170.428 40.2707C170.428 40.2707 166.583 25.5609 152.233 29.5024C137.882 33.4439 141.727 48.1536 141.727 48.1536L150.14 80.335L151.821 86.7667L180.522 78.8838L178.841 72.4523ZM172.566 74.1754L164.167 42.0436C164.167 42.0434 164.167 42.0438 164.167 42.0436C164.157 42.012 164.134 41.9357 164.096 41.8234C164.02 41.5966 163.887 41.2339 163.691 40.791C163.284 39.8759 162.677 38.7795 161.852 37.8261C161.046 36.8945 160.127 36.2035 159.048 35.8294C158.016 35.4713 156.404 35.2501 153.914 35.9339C151.424 36.6178 150.136 37.6356 149.416 38.4749C148.664 39.3519 148.206 40.4211 147.962 41.6409C147.713 42.8893 147.722 44.1504 147.816 45.151C147.862 45.6353 147.924 46.0173 147.968 46.253C147.99 46.3697 148.007 46.447 148.015 46.4792C148.015 46.4794 148.015 46.479 148.015 46.4792L156.414 78.6117L172.566 74.1754ZM164.17 42.0553C164.172 42.0606 164.172 42.061 164.17 42.0553Z" fill="white"/>
<g filter="url(#filter1_i_17_233)">
<path d="M214.293 66.4492C214.176 66.4742 214.058 66.5026 213.942 66.5346L124.515 90.9528C122.687 91.452 121.162 92.7431 120.339 94.4889L113.793 108.369C113.12 109.795 112.966 111.419 113.356 112.951L130.146 178.798C131.056 182.368 134.626 184.498 138.104 183.548L228.8 158.757C230.68 158.243 232.235 156.893 233.04 155.078L238.57 142.609C237.71 143.804 236.464 144.719 234.956 145.133L145.372 169.738C141.838 170.708 138.206 168.559 137.259 164.936L120.113 99.346C119.167 95.7236 121.264 92.0002 124.798 91.0295L214.293 66.4492Z" fill="#007F6D"/>
</g>
<g filter="url(#filter2_i_17_233)">
<path d="M214.453 66.2689C217.918 65.3171 221.48 67.425 222.408 70.9771L239.621 136.822C240.549 140.374 238.493 144.025 235.028 144.977L145.195 169.65C141.73 170.602 138.168 168.494 137.24 164.942L120.027 99.0967C119.099 95.5447 121.155 91.8937 124.62 90.9419L214.453 66.2689Z" fill="url(#paint1_linear_17_233)"/>
</g>
<path d="M191.394 91.7662L177.302 122.113L163.71 115.482L158.778 126.104L172.37 132.735L182.732 137.791L201.756 96.8218L191.394 91.7662Z" fill="white"/>
</g>
<defs>
<filter id="filter0_i_17_233" x="126.441" y="13.4511" width="72.3362" height="77.2572" filterUnits="userSpaceOnUse" color-interpolation-filters="sRGB">
<feFlood flood-opacity="0" result="BackgroundImageFix"/>
<feBlend mode="normal" in="SourceGraphic" in2="BackgroundImageFix" result="shape"/>
<feColorMatrix in="SourceAlpha" type="matrix" values="0 0 0 0 0 0 0 0 0 0 0 0 0 0 0 0 0 0 127 0" result="hardAlpha"/>
<feOffset dx="7.80894"/>
<feGaussianBlur stdDeviation="1.95224"/>
<feComposite in2="hardAlpha" operator="arithmetic" k2="-1" k3="1"/>
<feColorMatrix type="matrix" values="0 0 0 0 0.411765 0 0 0 0 0.490196 0 0 0 0 0.584314 0 0 0 0.1 0"/>
<feBlend mode="normal" in2="shape" result="effect1_innerShadow_17_233"/>
</filter>
<filter id="filter1_i_17_233" x="113.145" y="59.5509" width="132.323" height="124.223" filterUnits="userSpaceOnUse" color-interpolation-filters="sRGB">
<feFlood flood-opacity="0" result="BackgroundImageFix"/>
<feBlend mode="normal" in="SourceGraphic" in2="BackgroundImageFix" result="shape"/>
<feColorMatrix in="SourceAlpha" type="matrix" values="0 0 0 0 0 0 0 0 0 0 0 0 0 0 0 0 0 0 127 0" result="hardAlpha"/>
<feOffset dx="7.80894" dy="-11.7134"/>
<feGaussianBlur stdDeviation="3.44911"/>
<feComposite in2="hardAlpha" operator="arithmetic" k2="-1" k3="1"/>
<feColorMatrix type="matrix" values="0 0 0 0 0 0 0 0 0 0.360784 0 0 0 0 0.305882 0 0 0 0.32 0"/>
<feBlend mode="normal" in2="shape" result="effect1_innerShadow_17_233"/>
</filter>
<filter id="filter2_i_17_233" x="119.804" y="66.0403" width="120.039" height="103.838" filterUnits="userSpaceOnUse" color-interpolation-filters="sRGB">
<feFlood flood-opacity="0" result="BackgroundImageFix"/>
<feBlend mode="normal" in="SourceGraphic" in2="BackgroundImageFix" result="shape"/>
<feColorMatrix in="SourceAlpha" type="matrix" values="0 0 0 0 0 0 0 0 0 0 0 0 0 0 0 0 0 0 127 0" result="hardAlpha"/>
<feOffset dx="4.59882" dy="-6.89823"/>
<feComposite in2="hardAlpha" operator="arithmetic" k2="-1" k3="1"/>
<feColorMatrix type="matrix" values="0 0 0 0 0.152941 0 0 0 0 0.74902 0 0 0 0 0.603922 0 0 0 0.3 0"/>
<feBlend mode="normal" in2="shape" result="effect1_innerShadow_17_233"/>
</filter>
<linearGradient id="paint0_linear_17_233" x1="108.787" y1="13.4511" x2="205.289" y2="173.787" gradientUnits="userSpaceOnUse">
<stop stop-color="#BAC7D5"/>
<stop offset="0.583333" stop-color="#697D95"/>
</linearGradient>
<linearGradient id="paint1_linear_17_233" x1="205.774" y1="102.369" x2="110.712" y2="261.492" gradientUnits="userSpaceOnUse">
<stop stop-color="#02B89E"/>
<stop offset="1" stop-color="#007F6D"/>
</linearGradient>
<clipPath id="clip0_17_233">
<rect width="330" height="200" fill="white" transform="matrix(-1 0 0 1 330 0)"/>
</clipPath>
</defs>
</svg>
